<svg xmlns="http://www.w3.org/2000/svg" viewBox="0 0 48 48" fill="none" preserveAspectRatio="xMidYMid meet"><g transform="scale(0.093750)" fill="currentColor" stroke="none"><path d="M 201.200 9.200 C 200.424 9.976, 200 13.995, 200 20.578 C 200 31.744, 199.893 31.968, 193.584 34.002 C 188.511 35.638, 181.181 42.398, 178.881 47.562 C 177.887 49.796, 176.269 52.326, 175.286 53.184 C 174.304 54.042, 149.875 65.214, 121 78.010 C 57.051 106.350, 59.308 105.238, 57.492 109.283 C 55.838 112.965, 8.994 401.279, 8.997 407.750 C 8.999 410.664, 9.629 412.629, 11 414 C 12.931 415.931, 14.333 416, 51.777 416 C 94.546 416, 93.878 416.095, 95.861 409.747 C 96.419 407.961, 99.679 393.788, 103.105 378.250 C 107.461 358.494, 109.735 350, 110.667 350 C 111.760 350, 112 358.845, 112 399.032 C 112 438.719, 112.265 448.678, 113.392 451.282 C 114.158 453.052, 125.991 465.637, 139.688 479.250 C 168.102 507.488, 167.166 506.946, 175.660 500.098 C 178.322 497.953, 197.148 479.503, 217.495 459.098 C 240.496 436.033, 255.216 422, 256.409 422 C 257.602 422, 273.914 437.530, 299.476 463 C 345.991 509.349, 342.905 507.155, 351.660 500.100 C 357.139 495.686, 394.550 458.033, 397.847 453.615 C 399.985 450.750, 400 450.374, 400 399.865 C 400 356.382, 400.208 349, 401.433 349 C 403.205 349, 402.659 346.991, 409.988 380.500 C 416.682 411.108, 417.414 413.616, 420.071 415.038 C 421.133 415.606, 437.674 416, 460.480 416 L 499.091 416 501.545 413.545 C 502.973 412.118, 504.004 409.922, 504.008 408.295 C 504.016 405.917, 457.878 118.660, 456.458 112.242 C 455.203 106.571, 451.573 104.651, 394.500 79.463 C 363.700 65.869, 337.902 54.270, 337.172 53.687 C 336.442 53.103, 334.794 50.554, 333.511 48.023 C 330.561 42.201, 323.498 35.641, 318.416 34.002 C 312.107 31.968, 312 31.744, 312 20.578 C 312 13.995, 311.576 9.976, 310.800 9.200 C 309.242 7.642, 298.758 7.642, 297.200 9.200 C 296.407 9.993, 296 14.259, 296 21.766 C 296 28.017, 295.564 33.946, 295.032 34.941 C 293.630 37.560, 258.540 61, 256.021 61 C 253.456 61, 218.425 37.662, 217.003 35.006 C 216.452 33.975, 216 28.017, 216 21.766 C 216 14.259, 215.593 9.993, 214.800 9.200 C 213.242 7.642, 202.758 7.642, 201.200 9.200 M 305.181 49.057 C 299.413 51.370, 273 70.308, 273 72.131 C 273 74.581, 304.957 96, 308.613 96 C 312.356 96, 316.781 93.325, 318.483 90.033 C 320.762 85.625, 320.672 56.405, 318.369 53.117 C 315.543 49.082, 309.646 47.266, 305.181 49.057 M 196.261 50.529 C 193.012 52.805, 192.012 58.037, 192.006 72.782 C 191.998 90.698, 194.431 96, 202.659 96 C 206.973 96, 239 74.982, 239 72.151 C 239 70.850, 234.187 67.023, 223.250 59.626 C 208.953 49.957, 207.082 48.975, 202.973 48.987 C 200.482 48.994, 197.462 49.688, 196.261 50.529 M 123 94.570 C 96.325 106.423, 73.749 116.881, 72.831 117.810 C 70.548 120.122, 25.596 396.809, 27.192 398.731 C 27.993 399.696, 34.401 400, 53.967 400 C 77.218 400, 79.836 399.832, 81.214 398.250 C 82.109 397.222, 88.778 369.256, 97.370 330.500 L 112.002 264.500 112.001 213.450 C 112 175.077, 112.298 162.102, 113.200 161.200 C 113.860 160.540, 116.920 160, 120 160 C 123.080 160, 126.140 160.540, 126.800 161.200 C 127.722 162.122, 128 194.903, 128 302.665 L 128 442.930 131.177 446.715 C 142.169 459.807, 166.580 483, 169.369 483 C 170.897 483, 244.851 409.047, 246.570 405.800 C 247.725 403.619, 248 396.858, 248 370.654 L 248 338.209 213.898 281.354 C 195.142 250.084, 178.960 222.865, 177.937 220.866 C 176.094 217.264, 176.109 216.985, 179.661 188.669 C 181.631 172.959, 182.954 158.953, 182.600 157.544 C 182.143 155.722, 179.103 153.082, 172.059 148.392 C 157.876 138.949, 158.143 141.516, 167.942 108.889 C 176.616 80.005, 177.592 73.751, 173.500 73.260 C 172.400 73.128, 149.675 82.717, 123 94.570 M 336.743 73.590 C 334.969 75.364, 336.479 82.448, 344 107.624 C 348.400 122.354, 352 135.177, 352 136.121 C 352 139.718, 350.436 141.334, 340.500 148 C 334.871 151.777, 330 155.558, 329.675 156.403 C 329.351 157.248, 330.638 170.216, 332.535 185.220 C 334.433 200.224, 335.988 213.772, 335.992 215.326 C 335.998 217.271, 324.782 236.857, 300 278.180 L 264 338.208 264 370.569 L 264 402.930 267.174 406.715 C 272.713 413.320, 336.331 477.078, 340.400 480.102 C 342.545 481.696, 344.766 483, 345.335 483 C 346.847 483, 380.901 448.985, 382.578 445.800 C 383.788 443.502, 384 422.146, 384 302.750 C 384 194.922, 384.278 162.122, 385.200 161.200 C 385.860 160.540, 388.920 160, 392 160 C 395.080 160, 398.140 160.540, 398.800 161.200 C 399.701 162.101, 400 174.800, 400 212.202 L 400 262.003 415.045 329.704 C 423.320 366.939, 430.575 397.988, 431.168 398.702 C 432.001 399.706, 438.226 400, 458.654 400 C 482.536 400, 485.125 399.838, 485.712 398.308 C 486.069 397.378, 476.318 334.490, 464.042 258.558 C 444.396 137.035, 441.470 120.236, 439.612 118.296 C 437.560 116.155, 345.013 74.418, 339.993 73.370 C 338.614 73.083, 337.152 73.182, 336.743 73.590 M 237.545 94.032 C 228.770 100.054, 221.279 105.547, 220.899 106.240 C 220.518 106.933, 227.962 147.550, 237.441 196.500 C 251.686 270.062, 254.964 285.556, 256.338 285.823 C 257.252 286.001, 258 285.921, 258 285.645 C 258 285.369, 265.660 245.624, 275.023 197.322 C 284.385 149.020, 291.824 108.576, 291.553 107.446 C 290.908 104.756, 259.040 82.984, 255.832 83.042 C 254.549 83.065, 246.320 88.011, 237.545 94.032 M 319.500 109.566 C 316.750 110.891, 313.520 111.980, 312.321 111.987 C 310.368 111.999, 307 114.326, 307 115.664 C 307 115.951, 299.800 153.382, 291 198.845 C 282.200 244.308, 275 282.328, 275 283.336 C 275 284.343, 275.563 284.992, 276.250 284.778 C 277.327 284.443, 303.870 241.424, 315.924 220.478 L 319.964 213.457 316.490 185.978 C 313.070 158.936, 312.438 150.628, 313.575 147.664 C 313.892 146.840, 318.377 143.378, 323.543 139.972 C 328.709 136.565, 333.200 132.946, 333.523 131.928 C 334.133 130.006, 328.555 110.444, 326.771 108.250 C 325.492 106.676, 325.504 106.674, 319.500 109.566 M 181.518 119.375 C 179.565 125.631, 178.229 131.432, 178.549 132.266 C 178.868 133.100, 183.591 136.752, 189.044 140.382 C 196.279 145.199, 199.138 147.700, 199.623 149.636 C 199.990 151.095, 198.557 166.348, 196.441 183.532 L 192.592 214.774 213.546 249.857 C 228.193 274.380, 235.027 284.949, 236.250 284.970 C 237.213 284.986, 238 284.666, 238 284.258 C 238 280.572, 205.429 115.952, 204.363 114.250 C 203.470 112.825, 201.955 111.992, 200.227 111.978 C 198.727 111.966, 195.538 111.066, 193.141 109.978 C 185.613 106.562, 185.485 106.665, 181.518 119.375 M 153.200 369.200 C 152.540 369.860, 152 372.920, 152 376 C 152 379.080, 152.540 382.140, 153.200 382.800 C 154.908 384.508, 205.092 384.508, 206.800 382.800 C 207.460 382.140, 208 379.080, 208 376 C 208 372.920, 207.460 369.860, 206.800 369.200 C 205.092 367.492, 154.908 367.492, 153.200 369.200 M 305.200 369.200 C 303.642 370.758, 303.642 381.242, 305.200 382.800 C 306.908 384.508, 357.092 384.508, 358.800 382.800 C 359.460 382.140, 360 379.080, 360 376 C 360 372.920, 359.460 369.860, 358.800 369.200 C 357.092 367.492, 306.908 367.492, 305.200 369.200"/></g></svg>
