<svg xmlns="http://www.w3.org/2000/svg" viewBox="0 0 48 48" fill="none" preserveAspectRatio="xMidYMid meet"><g transform="scale(0.093750)" fill="currentColor" stroke="none"><path d="M 315.250 511.739 C 318.413 511.937, 323.587 511.937, 326.750 511.739 C 329.913 511.541, 327.325 511.378, 321 511.378 C 314.675 511.378, 312.087 511.541, 315.250 511.739"/><path d="M 283.299 511.745 C 288.139 511.929, 295.789 511.928, 300.299 511.743 C 304.810 511.558, 300.850 511.408, 291.500 511.409 C 282.150 511.410, 278.460 511.562, 283.299 511.745"/><path d="M 284 1.215 C 274.857 2.511, 263.094 9.020, 253.409 18.143 L 244.921 26.138 242.061 24.319 C 228.651 15.789, 222.645 13.247, 209.462 10.524 C 183.378 5.136, 168.036 20.492, 168.027 52 C 168.021 68.829, 170.701 75.275, 186.261 95.874 C 192.232 103.780, 196.906 110.802, 196.647 111.479 C 196.363 112.217, 193.047 112.984, 188.337 113.400 C 150.151 116.769, 118.699 121.621, 110.349 125.432 C 103.597 128.514, 96.478 135.022, 95.016 139.450 C 93.134 145.153, 92.126 157.129, 93.044 162.893 C 93.534 165.977, 95.725 172.100, 97.913 176.500 L 101.889 184.500 102.174 222.799 C 102.419 255.729, 102.251 261.230, 100.979 262.034 C 100.166 262.548, 96.196 262.976, 92.157 262.985 C 82.437 263.005, 65.967 266.439, 58.500 270.001 C 42.503 277.633, 36 290.413, 36 314.217 C 36 329.413, 37.415 336.674, 41.751 343.721 L 45.306 349.500 45.092 404.500 C 44.876 459.829, 45.477 473.802, 48.541 484.644 C 52.287 497.901, 64.360 501.392, 124 506.459 C 175.419 510.829, 187.558 511.164, 280.500 510.780 C 360.978 510.448, 370.680 510.229, 394 508.213 C 426.120 505.435, 431.999 504.541, 437.947 501.527 C 453.773 493.507, 459.292 474.490, 459.430 427.500 C 459.468 414.300, 459.149 400.766, 458.720 397.425 C 457.971 391.591, 458.064 391.194, 461.070 387.425 C 470.980 374.995, 475.774 353.228, 476.707 316.427 C 477.537 283.729, 475.326 274.336, 464.919 266.333 C 455.307 258.943, 447.326 257, 426.573 257 C 414.466 257, 412.032 256.744, 410.872 255.346 C 409.761 254.007, 409.500 246.256, 409.500 214.544 L 409.500 175.396 413.229 167.448 C 418.195 156.863, 419.207 151.095, 417.910 140.758 C 416.785 131.782, 414.165 125.908, 409.871 122.734 C 404.846 119.019, 367.790 114.824, 327.246 113.382 C 313.410 112.889, 307.690 112.332, 306.918 111.401 C 306.126 110.446, 307.422 105.303, 311.858 91.803 C 323.662 55.881, 325.487 45.466, 322.899 28.790 C 320.800 15.260, 314.935 6.459, 306.066 3.531 C 299.272 1.288, 290.202 0.336, 284 1.215 M 279.384 14.449 C 270.860 18.719, 262.175 26.349, 257.975 33.258 C 250.087 46.232, 247.606 46.706, 237.643 37.142 C 228.801 28.652, 223.534 25.566, 213.504 23.001 C 198.038 19.046, 190.667 20.725, 185.122 29.468 C 179.061 39.026, 178.160 59.210, 183.297 70.369 C 188.030 80.652, 208.725 107.799, 213.776 110.353 C 217.042 112.003, 283.443 113.451, 286.159 111.931 C 289.171 110.245, 308.442 63.638, 311.845 49.807 C 314.380 39.505, 312.705 22.777, 308.494 16.350 C 306.658 13.548, 298.542 11, 291.453 11 C 287.540 11, 284.580 11.846, 279.384 14.449 M 234.500 127.987 C 220.750 128.393, 205.675 129.044, 201 129.435 C 163.218 132.596, 121.490 138.768, 114.137 142.284 C 107.765 145.330, 105.500 149.975, 105.500 160 C 105.500 172.904, 111.026 180.821, 120.676 181.738 C 126.836 182.324, 129.562 180.302, 134.909 171.180 C 141.520 159.901, 147.283 156, 157.333 156 C 168.290 156, 172.043 162.938, 170.009 179.430 C 167.868 196.784, 169.285 202.507, 177.033 207.779 C 183.542 212.208, 187.713 211.947, 193.648 206.736 C 199.537 201.565, 201.175 196.556, 202.610 179.322 C 203.366 170.246, 204.466 163.010, 205.348 161.322 C 211.301 149.921, 228.109 146.183, 236.845 154.317 C 240.769 157.970, 242.179 161.892, 243.527 172.902 C 244.725 182.694, 245.040 183.646, 247.925 186.224 C 251.908 189.783, 253.256 189.717, 257.538 185.750 C 260.439 183.063, 261.465 180.928, 263.457 173.427 C 269.014 152.502, 273.906 145.088, 282.693 144.270 C 291.088 143.488, 296.393 148.831, 301.078 162.789 C 305.451 175.816, 311.953 174.179, 316.926 158.800 C 319.189 151.800, 326.621 147.143, 333.477 148.430 C 342.544 150.131, 346.625 158.482, 347.539 177.206 C 348.288 192.559, 349.481 198.819, 352.212 201.726 C 357.059 206.885, 360.695 202.971, 365.553 187.366 C 371.434 168.473, 376.621 160, 382.305 160 C 383.425 160, 387.431 161.425, 391.209 163.166 L 398.078 166.332 400.789 164.335 C 408.163 158.902, 409.123 138.184, 402.168 134.587 C 398.535 132.708, 380.364 130.341, 360 129.093 C 337.607 127.721, 265.170 127.083, 234.500 127.987 M 280.748 152.750 C 278.906 154.814, 276.185 162.932, 273.051 175.718 C 269.311 190.978, 262.784 198.027, 252.434 197.984 C 242.049 197.940, 236.396 190.522, 235.064 175.191 C 234.152 164.691, 233.159 161.690, 230.043 160.023 C 225.002 157.325, 216.898 160.592, 214.539 166.272 C 212.362 171.512, 212.065 197.494, 214.158 199.587 C 215.574 201.003, 219.655 201.301, 243.920 201.762 C 271.878 202.293, 285.411 201.627, 310.500 198.484 C 316.550 197.726, 324.744 196.813, 328.708 196.456 C 333.360 196.036, 336.375 195.254, 337.208 194.250 C 338.140 193.128, 338.500 188.434, 338.500 177.427 C 338.500 163.482, 338.318 161.915, 336.400 159.330 C 332.375 153.906, 327.931 155.600, 325.995 163.295 C 321.969 179.306, 313.437 186.499, 303.622 182.157 C 297.889 179.621, 294.479 174.459, 292.986 166.054 C 290.757 153.505, 285.335 147.611, 280.748 152.750 M 150.535 168.374 C 149.230 169.679, 146.950 173.167, 145.469 176.124 C 139.150 188.740, 134.361 192.259, 122.500 193 L 114.500 193.500 114.202 198.088 C 114.007 201.091, 114.383 203.073, 115.291 203.826 C 116.983 205.230, 154.759 203.341, 156.750 201.752 C 157.504 201.151, 158 198.340, 158 194.671 C 158 191.325, 158.734 184.184, 159.630 178.803 C 160.942 170.931, 161.015 168.723, 160.008 167.509 C 158.103 165.214, 153.252 165.657, 150.535 168.374 M 382.059 173.144 C 378.944 178.265, 375.522 193.951, 377.162 195.590 C 378.871 197.300, 395.514 196.343, 397.432 194.425 C 398.936 192.921, 400.418 179.018, 399.203 177.803 C 398.739 177.339, 395.116 175.405, 391.150 173.505 L 383.940 170.050 382.059 173.144 M 309.500 206.563 C 274.151 210.501, 245.008 210.955, 220.213 207.954 L 209.926 206.709 204.191 212.718 C 193.870 223.531, 185.819 225.541, 174.500 220.131 C 171.200 218.553, 167.375 216.037, 166 214.540 C 161.966 210.145, 161.126 210.013, 146.908 211.530 C 139.534 212.317, 129.618 212.969, 124.872 212.980 C 118.311 212.995, 115.936 213.372, 114.956 214.553 C 112.967 216.950, 112.339 236.207, 114.200 237.751 C 119.624 242.253, 165.175 243.207, 308 241.811 C 336.875 241.528, 361.175 241.016, 362 240.672 C 362.825 240.327, 369.397 239.156, 376.605 238.067 C 390.827 235.920, 394.652 234.673, 395.535 231.891 C 396.830 227.808, 397.819 208.487, 396.795 207.253 C 395.467 205.653, 375.749 205.529, 372.809 207.102 C 371.676 207.708, 368.771 209.715, 366.352 211.561 C 360.230 216.234, 356.061 216.839, 349.891 213.949 C 347.181 212.680, 343.824 210.147, 342.431 208.321 L 339.898 205 330.699 205.113 C 325.640 205.175, 316.100 205.828, 309.500 206.563 M 377 247.050 C 365.793 248.414, 354.211 248.839, 326 248.920 C 305.925 248.978, 256.865 249.477, 216.978 250.029 C 168.864 250.695, 139.778 250.699, 130.553 250.040 C 120.576 249.326, 116.276 249.356, 115.325 250.145 C 113.576 251.597, 113.586 260.411, 115.338 261.865 C 118.060 264.125, 275.851 266.077, 288.490 264.008 C 295.470 262.865, 321.486 260.623, 352 258.536 C 395.258 255.576, 393.218 255.965, 394.610 250.417 C 395.178 248.156, 393.602 244.808, 392.128 245.143 C 391.782 245.221, 384.975 246.079, 377 247.050 M 378.500 272.653 C 318.009 278.375, 242.308 281.390, 131.500 282.493 C 69.399 283.112, 63.507 283.855, 56.710 291.933 C 51.965 297.572, 50.500 304.074, 50.500 319.500 C 50.500 334.820, 51.460 338.290, 56.636 341.681 C 60.699 344.343, 63.385 342.032, 70.382 329.851 C 78.014 316.568, 82.023 311.539, 87.012 308.994 C 95.107 304.864, 102.081 307.420, 106.715 316.214 L 109.500 321.500 109.591 349.500 C 109.715 387.669, 111.773 396.170, 122.200 401.595 C 128.418 404.830, 132.631 402.656, 137.031 393.938 C 141.532 385.022, 142.872 377.659, 144.480 353 C 146.369 324.032, 147.330 320.541, 155.858 311.672 C 162.162 305.115, 164.634 304, 172.874 304 C 178.945 304, 180.251 304.340, 182.972 306.630 C 187.355 310.318, 190.580 317.249, 191.909 325.836 C 193.346 335.117, 195.129 339.383, 198.494 341.588 C 204.236 345.350, 208.575 341.014, 213.865 326.226 C 215.638 321.270, 218.770 314.805, 220.825 311.858 C 227.267 302.623, 238.632 297.592, 245.160 301.086 C 248.113 302.666, 250.801 309.550, 251.580 317.530 C 252.828 330.317, 256.480 334.872, 262.844 331.580 C 266.397 329.743, 267.790 327.353, 270.999 317.589 C 276.573 300.630, 293.304 292.680, 302.625 302.563 C 309.744 310.113, 311.087 324.153, 307.111 349.500 C 302.944 376.069, 303.233 392.642, 308.156 409.420 C 310.306 416.750, 314.320 422, 317.773 422 C 321.051 422, 327.339 416.554, 330.855 410.671 C 338.975 397.082, 343.472 379.680, 345.110 355.500 C 347.097 326.181, 349.248 318.839, 358.380 310.202 C 366.563 302.463, 374.572 300.929, 380.342 305.995 C 384.324 309.492, 385.385 311.776, 387.866 322.196 C 390.940 335.100, 394.621 338.251, 401.591 333.944 C 404.539 332.122, 406.155 329.734, 409.973 321.557 C 415.131 310.511, 418.619 306.669, 424.489 305.568 C 435.926 303.423, 442.112 318.858, 440.694 346 C 439.677 365.484, 442.518 379.077, 447.765 379.822 C 457.241 381.167, 469.150 313.274, 463.587 289.626 C 461.756 281.843, 459.589 279.094, 452.455 275.500 L 446.500 272.500 414.500 272.387 C 396.900 272.326, 380.700 272.445, 378.500 272.653 M 287.593 311.207 C 285.064 313.736, 283.930 316.046, 283.013 320.534 C 279.115 339.620, 266.309 349.916, 253.254 344.462 C 245.205 341.099, 242.146 335.547, 240.600 321.500 C 239.607 312.476, 239.292 311.470, 237.374 311.197 C 233.554 310.652, 228.594 317.908, 224.390 330.191 C 219.323 344.994, 216.626 349.058, 209.579 352.505 C 205.249 354.624, 203.106 355.117, 200.245 354.652 C 191.265 353.195, 183.763 343.700, 182.511 332.205 C 180.895 317.370, 178.625 313, 172.535 313 C 167.899 313, 162.928 317.441, 159.952 324.243 C 157.921 328.883, 157.559 331.848, 156.870 349.500 C 156.441 360.500, 155.818 371.110, 155.486 373.079 C 155.066 375.567, 155.319 377.020, 156.316 377.847 C 159.143 380.193, 179.396 381.223, 201 380.119 C 212.275 379.543, 227.800 378.822, 235.500 378.517 C 262.988 377.429, 285.543 375.849, 288.217 374.825 C 291.581 373.537, 291.230 374.744, 295.570 349.500 C 299.666 325.673, 299.848 315.954, 296.290 311.184 C 293.441 307.364, 291.430 307.370, 287.593 311.207 M 367.129 318.635 C 362.020 323.745, 361.024 327.755, 360.952 343.500 C 360.919 350.650, 360.504 360.100, 360.030 364.500 C 358.820 375.732, 357.915 375.293, 379.570 373.988 C 389.431 373.394, 404.376 372.990, 412.781 373.090 C 421.185 373.190, 428.282 373.052, 428.551 372.783 C 428.820 372.514, 429.284 361.182, 429.582 347.601 C 430.158 321.412, 429.552 316, 426.044 316 C 424.183 316, 423.417 317.483, 420.490 326.765 C 417.972 334.748, 413.280 341.022, 407.044 344.744 C 392.544 353.399, 380.009 345.153, 375.962 324.295 C 375.281 320.786, 373.950 317.360, 372.898 316.408 C 371.135 314.812, 370.837 314.927, 367.129 318.635 M 89.060 319.816 C 87.064 321.914, 82.762 328.747, 79.500 335 C 72.414 348.583, 68.113 353.524, 62.491 354.540 C 60.296 354.936, 57.938 355.707, 57.250 356.253 C 55.551 357.601, 55.508 378.108, 57.200 379.800 C 58.942 381.542, 98.364 381.495, 99.743 379.750 C 101.203 377.901, 102.152 330.809, 100.851 324.743 C 98.876 315.533, 94.768 313.816, 89.060 319.816 M 376.072 381.749 C 367.036 381.915, 359.115 382.489, 358.470 383.025 C 357.825 383.560, 356.476 387.036, 355.473 390.749 C 349.283 413.657, 338.119 430.193, 325.709 434.836 C 306.313 442.093, 294.521 427.956, 291.461 393.777 C 291.037 389.038, 290.218 385.596, 289.341 384.868 C 287.802 383.591, 264.573 383.938, 208.500 386.076 C 184.117 387.005, 177.590 386.947, 167.500 385.708 C 153.565 383.997, 154.471 383.563, 150.556 393.829 C 146.980 403.206, 142.694 408.800, 136.461 412.227 C 130.626 415.434, 130.008 415.489, 123.034 413.417 C 115.730 411.248, 108.142 403.669, 105.079 395.481 C 101.717 386.495, 102.339 386.801, 89.037 387.579 C 82.638 387.954, 72.974 388.314, 67.561 388.380 C 59.506 388.478, 57.527 388.806, 56.656 390.186 C 55.329 392.287, 57.479 437.668, 58.992 439.490 C 59.702 440.346, 69.591 441.044, 92.748 441.872 C 142.451 443.650, 166.564 444.843, 188 446.584 C 203.401 447.835, 218.850 448.101, 261.500 447.851 C 333.802 447.428, 344.427 447.436, 380 447.948 C 410.583 448.389, 439.108 446.618, 444.051 443.973 C 446.730 442.539, 446.868 441.410, 447.197 418.135 L 447.500 396.770 445.044 395.135 C 443.693 394.236, 440.139 391.025, 437.146 388 L 431.705 382.500 421.602 381.856 C 411.433 381.208, 406.177 381.195, 376.072 381.749 M 60.250 449.100 C 58.248 451.182, 59.669 479.645, 61.992 483.986 C 64.696 489.038, 83.251 493.165, 118.779 496.615 C 144.748 499.138, 148.010 499.223, 234.621 499.662 C 326.310 500.126, 339.409 499.809, 385.500 496.016 C 432.162 492.176, 433.805 491.772, 438.865 482.913 C 443.226 475.277, 446.972 458.037, 444.677 456.162 C 443.920 455.543, 436.014 455.726, 422.500 456.674 C 409.744 457.570, 396.789 457.898, 389.500 457.511 C 382.900 457.160, 339.025 456.502, 292 456.050 C 227.451 455.428, 202.212 454.837, 189 453.637 C 159.447 450.952, 143.764 450.133, 110.500 449.534 C 92.900 449.218, 74.675 448.698, 70 448.380 C 63.708 447.951, 61.175 448.138, 60.250 449.100"/></g></svg>
